<?xml version="1.0" encoding="UTF-8" standalone="no"?>
<!DOCTYPE svg PUBLIC "-//W3C//DTD SVG 1.1//EN" "http://www.w3.org/Graphics/SVG/1.1/DTD/svg11.dtd">

<svg width="72" height="50" xmlns="http://www.w3.org/2000/svg" viewBox="0 0 72 50" style="enable-background:new 0 0 580 400;" xml:space="preserve">
<g>
  <title>Layer 1</title>
  <g id="svg_6">
   <path d="m197,126.95c0,-4 0.30745,-7.186 -1,-9c-1.65381,-2.29454 -3.77306,-5.12872 -16,-7c-16.83339,-2.57628 -35.63126,-0.62692 -42,12c-9.10753,18.05693 -4.39084,61.23663 10,74c10.42044,9.24199 29.95833,-6.03102 35,-45c0.51323,-3.96693 0,-6 -2,-6c-2,0 -5.22836,-1.14806 -8,0c-3.91969,1.62358 -7,6 -9,7l-2,1l-1,1l0,0" id="svg_1" stroke-width="1.5" stroke="#fff" fill="none"/>
   <path d="m195,178.95c-2,-3 -3.49873,-6.94672 -4,-14c-0.42534,-5.98491 -2.10837,-13.25056 0,-20c1.33345,-4.26871 4.48531,-8.85114 9,-11c3.7229,-1.77199 7.51871,-1.45877 11,3c3.58844,4.59599 5.41479,12.90759 7,21c1.3593,6.93919 2.89737,11.30791 1,17c-1.58115,4.74342 -6.46356,8.72507 -13,13c-3.74275,2.44781 -6.02582,3.32036 -8,3c-3.12144,-0.50655 -4.16505,-7.98109 -5,-16c-1.24706,-11.97685 -1.62985,-23.43617 1,-30c3.19936,-7.98524 8,-10 11,-10c2,0 4.29289,-0.70711 5,0c1.41422,1.41422 0.75256,5.01022 1,8c0.50171,6.06204 1.49829,9.93796 2,16c0.24744,2.98978 0.48625,4.82375 1,7c0.22975,0.97325 0.38687,2.9176 3,4c0.92387,0.38269 3.01291,1.83981 4,2c3.12144,0.50655 5,1 8,1c2,0 2.69344,-1.4588 4,-2c0.92387,-0.38269 1,-1 2,-2c0,0 0,-2 1,-2l0,-1l0,-1l0,0" id="svg_2" stroke-width="1.5" stroke="#fff" fill="none"/>
   <path d="m242,144.95c-1,5 -2.44841,9.80565 -4,14c-1.4305,3.867 -1.48625,8.82375 -2,11c-0.68925,2.91975 0,6 0,9c0,3 0.31076,5.53493 2,7c2.38896,2.07193 6,2 8,2c2,0 4,0 5,0l0,0l1,0l0,-1" id="svg_3" stroke-width="1.5" stroke="#fff" fill="none"/>
   <path d="m243,125.95c4,-6 4.82375,-8.48626 7,-9c1.9465,-0.4595 3,0 5,1c2,1 2.48627,2.82375 3,5c0.22977,0.97325 1,2 1,4c0,0 -0.0535,0.5405 -2,1c-2.17625,0.51375 -3,1 -5,1c-1,0 -2,-1 -3,-2c-1,-1 -1,-2 -2,-2c0,0 0,0 -1,-1c0,0 -1,-1 -1,-1l0,0" id="svg_4" stroke-width="1.5" stroke="#fff" fill="none"/>
   <path d="m260,184.95c0,0 0.61731,1.07613 1,2c0.5412,1.30656 1.16019,0.98709 1,0c-0.50653,-3.12144 -2.13083,-7.95796 -4,-14c-2.1516,-6.9549 -2.51126,-13.02997 -3,-17c-0.50377,-4.09221 -1,-7 -1,-9c0,-2 2,-4 4,-4c2,0 6.0004,1.29155 10,8c2.75772,4.62547 6.60703,13.17572 9,18c2.59106,5.22363 4,11 4,13c0,1 0,1 0,2c0,0 0,1 0,1l0,0" id="svg_5" stroke-width="1.5" stroke="#fff" fill="none"/>
  </g>
 </g>
</svg>